<svg width="800" height="400" viewBox="0 0 800 400" xmlns="http://www.w3.org/2000/svg">
  <!-- Define Colors (Optimized for both Light and Dark backgrounds) -->
  <defs>
    <style>
      .light { fill: #4dd0e1; } /* Cyan 300 */
      .medium { fill: #00acc1; } /* Cyan 600 */
      .dark { fill: #00838f; } /* Cyan 800 */
      .accent { fill: #0097a7; stroke: #0097a7; } /* Cyan 700 - Good contrast on white and dark gray */
      .text-main { fill: #0097a7; font-family: 'Segoe UI', Roboto, Helvetica, Arial, sans-serif; font-weight: 700; }
      .text-tagline { fill: #0097a7; font-family: 'Segoe UI', Roboto, Helvetica, Arial, sans-serif; font-weight: 600; letter-spacing: 0.05em; }
    </style>
  </defs>

  <!-- Isometric Stack -->
  <g transform="translate(150, 280)">
    <!-- Bottom Layer -->
    <path class="dark" d="M0 0 l50 -25 l50 25 l0 30 l-50 25 l-50 -25 Z" />
    <path class="dark" d="M0 0 l-50 -25 l0 30 l50 25 Z" opacity="0.8" />
    
    <!-- Middle Layer -->
    <g transform="translate(0, -40)">
      <path class="medium" d="M0 0 l50 -25 l50 25 l0 30 l-50 25 l-50 -25 Z" />
      <path class="medium" d="M0 0 l-50 -25 l0 30 l50 25 Z" opacity="0.8" />
    </g>

    <!-- Top Layer -->
    <g transform="translate(0, -80)">
      <path class="light" d="M0 0 l50 -25 l0 30 l-50 25 Z" />
      <path class="light" d="M0 0 l-50 -25 l0 30 l50 25 Z" />
      <path class="light" d="M0 -10 l50 -25 l0 -10 l-50 25 Z" opacity="0.5" transform="translate(0, -10)"/>
      <path class="light" d="M0 -30 l50 25 l-50 25 l-50 -25 Z" />
      
      <!-- Key Icon on Top (K removed) -->
      <g transform="translate(0, -50)">
        <!-- Key Head (Hexagon) -->
        <path fill="none" class="accent" stroke-width="5" d="M0 -25 l22 12 l0 25 l-22 12 l-22 -12 l0 -25 Z" />
        <!-- Key Stem -->
        <rect class="accent" x="-4" y="24" width="8" height="30" />
        <!-- Key Teeth -->
        <rect class="accent" x="4" y="35" width="6" height="4" />
        <rect class="accent" x="4" y="44" width="6" height="4" />
      </g>
    </g>
  </g>

  <!-- Typography -->
  <g transform="translate(320, 220)">
    <text class="text-main" font-size="82">keystack</text>
    <text class="text-tagline" font-size="22" transform="translate(2, 55)">LOCAL DEVELOPMENT CLOUD</text>
  </g>
</svg>
